<svg width="1400" height="820" viewBox="0 0 1400 820" fill="none" xmlns="http://www.w3.org/2000/svg">
  <rect width="1400" height="820" fill="#EAF5F8"/>
  <rect x="34" y="34" width="1332" height="752" rx="32" fill="#F8FAFC"/>
  <rect x="70" y="70" width="1260" height="84" rx="28" fill="white" stroke="#E2E8F0" stroke-width="2"/>
  <rect x="102" y="92" width="44" height="44" rx="16" fill="url(#paint0_linear_1_2)"/>
  <text x="164" y="119" fill="#0F172A" font-family="Arial, sans-serif" font-size="28" font-weight="700">Find Your Way</text>
  <rect x="70" y="186" width="812" height="274" rx="30" fill="white" stroke="#E2E8F0" stroke-width="2"/>
  <rect x="912" y="186" width="418" height="274" rx="30" fill="white" stroke="#E2E8F0" stroke-width="2"/>
  <text x="108" y="236" fill="#10B981" font-family="Arial, sans-serif" font-size="18" font-weight="700">WORKSPACE OVERVIEW</text>
  <text x="108" y="296" fill="#0F172A" font-family="Arial, sans-serif" font-size="48" font-weight="700">Welcome back, Aarav</text>
  <text x="108" y="344" fill="#475569" font-family="Arial, sans-serif" font-size="22">Continue saved labs, compare algorithms, and reopen your latest route.</text>
  <rect x="108" y="384" width="212" height="60" rx="20" fill="url(#paint1_linear_1_2)"/>
  <rect x="336" y="384" width="190" height="60" rx="20" fill="#F8FAFC" stroke="#CBD5E1"/>
  <rect x="542" y="384" width="170" height="60" rx="20" fill="#F8FAFC" stroke="#CBD5E1"/>
  <text x="146" y="422" fill="white" font-family="Arial, sans-serif" font-size="22" font-weight="700">Launch Visualizer</text>
  <text x="366" y="422" fill="#0F172A" font-family="Arial, sans-serif" font-size="22" font-weight="700">Continue Last Grid</text>
  <text x="584" y="422" fill="#0F172A" font-family="Arial, sans-serif" font-size="22" font-weight="700">Refresh Data</text>
  <rect x="590" y="230" width="242" height="88" rx="24" fill="#F8FAFC" stroke="#E2E8F0"/>
  <rect x="590" y="336" width="242" height="88" rx="24" fill="#F8FAFC" stroke="#E2E8F0"/>
  <text x="622" y="266" fill="#64748B" font-family="Arial, sans-serif" font-size="16">Saved projects</text>
  <text x="622" y="303" fill="#0F172A" font-family="Arial, sans-serif" font-size="34" font-weight="700">12</text>
  <text x="622" y="372" fill="#64748B" font-family="Arial, sans-serif" font-size="16">Last activity</text>
  <text x="622" y="409" fill="#0F172A" font-family="Arial, sans-serif" font-size="24" font-weight="700">2 hours ago</text>
  <text x="950" y="236" fill="#10B981" font-family="Arial, sans-serif" font-size="18" font-weight="700">LAST USED GRID</text>
  <text x="950" y="292" fill="#0F172A" font-family="Arial, sans-serif" font-size="38" font-weight="700">Weighted Maze A</text>
  <text x="950" y="332" fill="#475569" font-family="Arial, sans-serif" font-size="20">dijkstra - 18 x 32</text>
  <rect x="950" y="362" width="340" height="76" rx="24" fill="url(#paint2_linear_1_2)"/>
  <text x="1060" y="407" fill="white" font-family="Arial, sans-serif" font-size="24" font-weight="700">Open Last Grid</text>
  <text x="70" y="518" fill="#0F172A" font-family="Arial, sans-serif" font-size="38" font-weight="700">Project library</text>
  <rect x="70" y="560" width="400" height="200" rx="28" fill="white" stroke="#E2E8F0" stroke-width="2"/>
  <rect x="500" y="560" width="400" height="200" rx="28" fill="white" stroke="#E2E8F0" stroke-width="2"/>
  <rect x="930" y="560" width="400" height="200" rx="28" fill="white" stroke="#E2E8F0" stroke-width="2"/>
  <text x="102" y="612" fill="#0F172A" font-family="Arial, sans-serif" font-size="28" font-weight="700">Weighted Maze A</text>
  <text x="102" y="648" fill="#475569" font-family="Arial, sans-serif" font-size="18">dijkstra - 18 x 32</text>
  <text x="532" y="612" fill="#0F172A" font-family="Arial, sans-serif" font-size="28" font-weight="700">BFS Arena</text>
  <text x="532" y="648" fill="#475569" font-family="Arial, sans-serif" font-size="18">bfs - 16 x 28</text>
  <text x="962" y="612" fill="#0F172A" font-family="Arial, sans-serif" font-size="28" font-weight="700">Tunnel Route</text>
  <text x="962" y="648" fill="#475569" font-family="Arial, sans-serif" font-size="18">dijkstra - 20 x 36</text>
  <rect x="102" y="686" width="180" height="44" rx="16" fill="url(#paint3_linear_1_2)"/>
  <rect x="532" y="686" width="180" height="44" rx="16" fill="url(#paint3_linear_1_2)"/>
  <rect x="962" y="686" width="180" height="44" rx="16" fill="url(#paint3_linear_1_2)"/>
  <text x="146" y="715" fill="white" font-family="Arial, sans-serif" font-size="18" font-weight="700">Open</text>
  <text x="576" y="715" fill="white" font-family="Arial, sans-serif" font-size="18" font-weight="700">Open</text>
  <text x="1006" y="715" fill="white" font-family="Arial, sans-serif" font-size="18" font-weight="700">Open</text>
  <defs>
    <linearGradient id="paint0_linear_1_2" x1="102" y1="92" x2="146" y2="136" gradientUnits="userSpaceOnUse">
      <stop stop-color="#10B981"/>
      <stop offset="1" stop-color="#0EA5E9"/>
    </linearGradient>
    <linearGradient id="paint1_linear_1_2" x1="108" y1="384" x2="320" y2="444" gradientUnits="userSpaceOnUse">
      <stop stop-color="#10B981"/>
      <stop offset="1" stop-color="#0EA5E9"/>
    </linearGradient>
    <linearGradient id="paint2_linear_1_2" x1="950" y1="362" x2="1290" y2="438" gradientUnits="userSpaceOnUse">
      <stop stop-color="#10B981"/>
      <stop offset="1" stop-color="#0EA5E9"/>
    </linearGradient>
    <linearGradient id="paint3_linear_1_2" x1="102" y1="686" x2="282" y2="730" gradientUnits="userSpaceOnUse">
      <stop stop-color="#10B981"/>
      <stop offset="1" stop-color="#0EA5E9"/>
    </linearGradient>
  </defs>
</svg>

