<svg width="1400" height="820" viewBox="0 0 1400 820" fill="none" xmlns="http://www.w3.org/2000/svg">
  <rect width="1400" height="820" fill="#E8F4F2"/>
  <rect x="40" y="40" width="1320" height="740" rx="36" fill="#F8FAFC"/>
  <rect x="72" y="72" width="760" height="676" rx="30" fill="url(#paint0_linear_1_2)"/>
  <rect x="870" y="98" width="442" height="624" rx="32" fill="white" stroke="#E2E8F0" stroke-width="2"/>
  <text x="116" y="158" fill="white" font-family="Arial, sans-serif" font-size="22" font-weight="700">Find Your Way</text>
  <text x="116" y="230" fill="white" font-family="Arial, sans-serif" font-size="54" font-weight="700">Sign in to continue</text>
  <text x="116" y="282" fill="#D1FAE5" font-family="Arial, sans-serif" font-size="24">Interactive shortest-path labs with saved projects.</text>
  <rect x="116" y="340" width="198" height="118" rx="24" fill="rgba(255,255,255,0.16)"/>
  <rect x="336" y="340" width="198" height="118" rx="24" fill="rgba(255,255,255,0.16)"/>
  <rect x="556" y="340" width="198" height="118" rx="24" fill="rgba(255,255,255,0.16)"/>
  <text x="140" y="395" fill="white" font-family="Arial, sans-serif" font-size="24" font-weight="700">Dijkstra</text>
  <text x="140" y="428" fill="#D1FAE5" font-family="Arial, sans-serif" font-size="18">Weighted search</text>
  <text x="360" y="395" fill="white" font-family="Arial, sans-serif" font-size="24" font-weight="700">BFS</text>
  <text x="360" y="428" fill="#D1FAE5" font-family="Arial, sans-serif" font-size="18">Fast comparison</text>
  <text x="580" y="395" fill="white" font-family="Arial, sans-serif" font-size="24" font-weight="700">Saved Labs</text>
  <text x="580" y="428" fill="#D1FAE5" font-family="Arial, sans-serif" font-size="18">Account backed</text>
  <rect x="116" y="500" width="638" height="180" rx="28" fill="rgba(6,17,29,0.24)" stroke="rgba(255,255,255,0.16)"/>
  <rect x="148" y="534" width="322" height="112" rx="22" fill="rgba(255,255,255,0.12)"/>
  <rect x="500" y="534" width="224" height="112" rx="22" fill="rgba(255,255,255,0.12)"/>
  <g>
    <rect x="186" y="570" width="18" height="18" rx="6" fill="#10B981"/>
    <rect x="210" y="570" width="18" height="18" rx="6" fill="#7DD3FC"/>
    <rect x="234" y="570" width="18" height="18" rx="6" fill="#7DD3FC"/>
    <rect x="258" y="570" width="18" height="18" rx="6" fill="#7DD3FC"/>
    <rect x="282" y="570" width="18" height="18" rx="6" fill="#1E293B"/>
    <rect x="306" y="570" width="18" height="18" rx="6" fill="#1E293B"/>
    <rect x="330" y="570" width="18" height="18" rx="6" fill="#FCD34D"/>
    <rect x="354" y="570" width="18" height="18" rx="6" fill="#F43F5E"/>
  </g>
  <text x="900" y="162" fill="#0F172A" font-family="Arial, sans-serif" font-size="20" font-weight="700">Welcome back</text>
  <text x="900" y="214" fill="#0F172A" font-family="Arial, sans-serif" font-size="40" font-weight="700">Sign in to your workspace</text>
  <text x="900" y="258" fill="#475569" font-family="Arial, sans-serif" font-size="20">Access saved grids, compare algorithms, and continue your last run.</text>
  <rect x="900" y="320" width="382" height="68" rx="22" fill="#F8FAFC" stroke="#CBD5E1"/>
  <rect x="900" y="408" width="382" height="68" rx="22" fill="#F8FAFC" stroke="#CBD5E1"/>
  <rect x="900" y="520" width="382" height="72" rx="24" fill="url(#paint1_linear_1_2)"/>
  <text x="924" y="362" fill="#64748B" font-family="Arial, sans-serif" font-size="18">Email address</text>
  <text x="924" y="450" fill="#64748B" font-family="Arial, sans-serif" font-size="18">Password</text>
  <text x="1030" y="565" fill="white" font-family="Arial, sans-serif" font-size="24" font-weight="700">Sign In</text>
  <defs>
    <linearGradient id="paint0_linear_1_2" x1="82" y1="78" x2="760" y2="720" gradientUnits="userSpaceOnUse">
      <stop stop-color="#10B981"/>
      <stop offset="0.5" stop-color="#0EA5E9"/>
      <stop offset="1" stop-color="#0F172A"/>
    </linearGradient>
    <linearGradient id="paint1_linear_1_2" x1="900" y1="520" x2="1282" y2="592" gradientUnits="userSpaceOnUse">
      <stop stop-color="#10B981"/>
      <stop offset="1" stop-color="#0EA5E9"/>
    </linearGradient>
  </defs>
</svg>

